<?xml version="1.0" encoding="UTF-8" standalone="no"?>
<!DOCTYPE svg PUBLIC "-//W3C//DTD SVG 1.0//EN" "http://www.w3.org/TR/2001/PR-SVG-20010719/DTD/svg10.dtd">
<svg width="30cm" height="35cm" viewBox="14 -47 595 698" xmlns="http://www.w3.org/2000/svg" xmlns:xlink="http://www.w3.org/1999/xlink">
  <ellipse style="fill: #000000" cx="184" cy="40" rx="10" ry="10"/>
  <g>
    <polyline style="fill: none; fill-opacity:0; stroke-width: 2; stroke: #000000" points="184,51.0054 184,51.0054 184,72.5279 "/>
    <polyline style="fill: none; fill-opacity:0; stroke-width: 2; stroke: #000000" points="179,64.7639 184,74.7639 189,64.7639 "/>
  </g>
  <g>
    <rect style="fill: #ffffff" x="142" y="77" width="84" height="56"/>
    <rect style="fill: none; fill-opacity:0; stroke-width: 2; stroke-dasharray: 4; stroke: #000000" x="142" y="77" width="84" height="56"/>
  </g>
  <text style="fill: #000000;text-anchor:start;font-size:12.8;font-family:sanserif;font-style:normal;font-weight:normal" x="167" y="109">
    <tspan x="167" y="109">Parser</tspan>
  </text>
  <g>
    <polyline style="fill: none; fill-opacity:0; stroke-width: 2; stroke: #000000" points="184,133 184,133 184,170.528 "/>
    <polyline style="fill: none; fill-opacity:0; stroke-width: 2; stroke: #000000" points="179,162.764 184,172.764 189,162.764 "/>
    <text style="fill: #000000;text-anchor:middle;font-size:12.7998;font-family:sanserif;font-style:normal;font-weight:normal" x="165" y="150">[AST]</text>
  </g>
  <g>
    <rect style="fill: #ffffff" x="134" y="172" width="83.1" height="52" rx="20" ry="20"/>
    <rect style="fill: none; fill-opacity:0; stroke-width: 2; stroke: #000000" x="134" y="172" width="83.1" height="52" rx="20" ry="20"/>
    <text style="fill: #000000;text-anchor:middle;font-size:12.8;font-family:sanserif;font-style:normal;font-weight:normal" x="175.55" y="194.8">
      <tspan x="175.55" y="194.8">translate</tspan>
      <tspan x="175.55" y="210.8">to SMT-LIB</tspan>
    </text>
  </g>
  <g>
    <polyline style="fill: none; fill-opacity:0; stroke-width: 2; stroke: #000000" points="217.1,198 217.1,198 466.528,198 "/>
    <polyline style="fill: none; fill-opacity:0; stroke-width: 2; stroke: #000000" points="458.764,203 468.764,198 458.764,193 "/>
    <text style="fill: #000000;text-anchor:middle;font-size:12.7998;font-family:sanserif;font-style:normal;font-weight:normal" x="265" y="192">[SMT-LIB 2.0]</text>
  </g>
  <g>
    <rect style="fill: #ffffff" x="471" y="180" width="80" height="36" rx="20" ry="20"/>
    <rect style="fill: none; fill-opacity:0; stroke-width: 2; stroke: #000000" x="471" y="180" width="80" height="36" rx="20" ry="20"/>
    <text style="fill: #000000;text-anchor:middle;font-size:12.8;font-family:sanserif;font-style:normal;font-weight:normal" x="511" y="202.8">
      <tspan x="511" y="202.8">Verify</tspan>
    </text>
  </g>
  <g>
    <rect style="fill: #ffffff" x="134" y="249" width="86.3" height="36" rx="20" ry="20"/>
    <rect style="fill: none; fill-opacity:0; stroke-width: 2; stroke: #000000" x="134" y="249" width="86.3" height="36" rx="20" ry="20"/>
    <text style="fill: #000000;text-anchor:middle;font-size:12.8;font-family:sanserif;font-style:normal;font-weight:normal" x="177.15" y="271.8">
      <tspan x="177.15" y="271.8">parse result</tspan>
    </text>
  </g>
  <g>
    <polyline style="fill: none; fill-opacity:0; stroke-width: 2; stroke: #000000" points="511,216 511,267 224.772,267 "/>
    <polyline style="fill: none; fill-opacity:0; stroke-width: 2; stroke: #000000" points="232.536,262 222.536,267 232.536,272 "/>
    <text style="fill: #000000;text-anchor:middle;font-size:12.7998;font-family:sanserif;font-style:normal;font-weight:normal" x="465" y="262">[Z3 result]</text>
  </g>
  <g>
    <polygon style="fill: #ffffff" points="148,334 168,314 188,334 168,354 "/>
    <polygon style="fill: none; fill-opacity:0; stroke-width: 2; stroke: #000000" points="148,334 168,314 188,334 168,354 "/>
  </g>
  <g>
    <rect style="fill: #ffffff" x="72" y="455" width="84.3" height="52" rx="20" ry="20"/>
    <rect style="fill: none; fill-opacity:0; stroke-width: 2; stroke: #000000" x="72" y="455" width="84.3" height="52" rx="20" ry="20"/>
    <text style="fill: #000000;text-anchor:middle;font-size:12.8;font-family:sanserif;font-style:normal;font-weight:normal" x="114.15" y="477.8">
      <tspan x="114.15" y="477.8">show</tspan>
      <tspan x="114.15" y="493.8">correctness</tspan>
    </text>
  </g>
  <g>
    <rect style="fill: #ffffff" x="245" y="458" width="110.15" height="52" rx="20" ry="20"/>
    <rect style="fill: none; fill-opacity:0; stroke-width: 2; stroke: #000000" x="245" y="458" width="110.15" height="52" rx="20" ry="20"/>
    <text style="fill: #000000;text-anchor:middle;font-size:12.8;font-family:sanserif;font-style:normal;font-weight:normal" x="300.075" y="480.8">
      <tspan x="300.075" y="480.8">show</tspan>
      <tspan x="300.075" y="496.8">counterexample</tspan>
    </text>
  </g>
  <g>
    <rect style="fill: #ffffff" x="152" y="389" width="93.85" height="52" rx="20" ry="20"/>
    <rect style="fill: none; fill-opacity:0; stroke-width: 2; stroke: #000000" x="152" y="389" width="93.85" height="52" rx="20" ry="20"/>
    <text style="fill: #000000;text-anchor:middle;font-size:12.8;font-family:sanserif;font-style:normal;font-weight:normal" x="198.925" y="411.8">
      <tspan x="198.925" y="411.8">show</tspan>
      <tspan x="198.925" y="427.8">"no decision"</tspan>
    </text>
  </g>
  <g>
    <polyline style="fill: none; fill-opacity:0; stroke-width: 2; stroke: #000000" points="168,284 168,284 168,309.528 "/>
    <polyline style="fill: none; fill-opacity:0; stroke-width: 2; stroke: #000000" points="163,301.764 168,311.764 173,301.764 "/>
  </g>
  <g>
    <polyline style="fill: none; fill-opacity:0; stroke-width: 2; stroke: #000000" points="166,351 166,370 198.925,370 198.925,384.528 "/>
    <polyline style="fill: none; fill-opacity:0; stroke-width: 2; stroke: #000000" points="193.925,376.764 198.925,386.764 203.925,376.764 "/>
    <text style="fill: #000000;text-anchor:middle;font-size:12.7998;font-family:sanserif;font-style:normal;font-weight:normal" x="210" y="365">[no decision]</text>
  </g>
  <g>
    <polyline style="fill: none; fill-opacity:0; stroke-width: 2; stroke: #000000" points="188,334 300.075,334 300.075,453.528 "/>
    <polyline style="fill: none; fill-opacity:0; stroke-width: 2; stroke: #000000" points="295.075,445.764 300.075,455.764 305.075,445.764 "/>
    <text style="fill: #000000;text-anchor:middle;font-size:12.7998;font-family:sanserif;font-style:normal;font-weight:normal" x="234.039" y="324">[disproved]</text>
  </g>
  <g>
    <polyline style="fill: none; fill-opacity:0; stroke-width: 2; stroke: #000000" points="148,334 114.15,334 114.15,450.528 "/>
    <polyline style="fill: none; fill-opacity:0; stroke-width: 2; stroke: #000000" points="109.15,442.764 114.15,452.764 119.15,442.764 "/>
    <text style="fill: #000000;text-anchor:middle;font-size:12.7998;font-family:sanserif;font-style:normal;font-weight:normal" x="118" y="327">[proved]</text>
  </g>
  <g>
    <polygon style="fill: #ffffff" points="179,562.25 199,542.25 219,562.25 199,582.25 "/>
    <polygon style="fill: none; fill-opacity:0; stroke-width: 2; stroke: #000000" points="179,562.25 199,542.25 219,562.25 199,582.25 "/>
  </g>
  <g>
    <polyline style="fill: none; fill-opacity:0; stroke-width: 2; stroke: #000000" points="198.925,441 198.925,491.625 199,491.625 199,537.778 "/>
    <polyline style="fill: none; fill-opacity:0; stroke-width: 2; stroke: #000000" points="194,530.014 199,540.014 204,530.014 "/>
  </g>
  <g>
    <polyline style="fill: none; fill-opacity:0; stroke-width: 2; stroke: #000000" points="114.15,507 115,507 115,562.25 174.528,562.25 "/>
    <polyline style="fill: none; fill-opacity:0; stroke-width: 2; stroke: #000000" points="166.764,567.25 176.764,562.25 166.764,557.25 "/>
  </g>
  <g>
    <polyline style="fill: none; fill-opacity:0; stroke-width: 2; stroke: #000000" points="300.075,510 300.075,562.25 223.472,562.25 "/>
    <polyline style="fill: none; fill-opacity:0; stroke-width: 2; stroke: #000000" points="231.236,557.25 221.236,562.25 231.236,567.25 "/>
  </g>
  <g>
    <ellipse style="fill: #ffffff" cx="260" cy="611.25" rx="15" ry="15"/>
    <ellipse style="fill: none; fill-opacity:0; stroke-width: 2; stroke: #000000" cx="260" cy="611.25" rx="15" ry="15"/>
    <ellipse style="fill: #000000" cx="260" cy="611.25" rx="10" ry="10"/>
  </g>
  <g>
    <polyline style="fill: none; fill-opacity:0; stroke-width: 2; stroke: #000000" points="199,582.25 199,611.25 239.52,611.25 "/>
    <polyline style="fill: none; fill-opacity:0; stroke-width: 2; stroke: #000000" points="231.756,616.25 241.756,611.25 231.756,606.25 "/>
  </g>
  <rect style="fill: none; fill-opacity:0; stroke-width: 2; stroke: #000000" x="20" y="-41.25" width="586" height="689.75"/>
  <line style="fill: none; fill-opacity:0; stroke-width: 2; stroke: #000000" x1="411" y1="-45.5" x2="411" y2="650.25"/>
  <line style="fill: none; fill-opacity:0; stroke-width: 2; stroke: #000000" x1="608" y1="0.75" x2="15.0054" y2="-0.25"/>
  <text style="fill: #000000;text-anchor:start;font-size:12.7998;font-family:sanserif;font-style:normal;font-weight:normal" x="313" y="303.625">
    <tspan x="313" y="303.625"></tspan>
  </text>
  <text style="fill: #000000;text-anchor:start;font-size:12.7998;font-family:sanserif;font-style:normal;font-weight:normal" x="313" y="303.625">
    <tspan x="313" y="303.625"></tspan>
  </text>
  <text style="fill: #000000;text-anchor:start;font-size:17.2604;font-family:sanserif;font-style:normal;font-weight:normal" x="434.009" y="-14.5">
    <tspan x="434.009" y="-14.5">Z3 (externes Tool)</tspan>
  </text>
  <text style="fill: #000000;text-anchor:start;font-size:17.2604;font-family:sanserif;font-style:normal;font-weight:normal" x="161.509" y="-13.55">
    <tspan x="161.509" y="-13.55">Eigenes Programm</tspan>
  </text>
</svg>
